{
	"asset":{
		"generator":"Khronos glTF Blender I/O v4.2.60",
		"version":"2.0"
	},
	"scene":0,
	"scenes":[
		{
			"name":"Scene",
			"nodes":[
				0,
				1,
				2
			]
		}
	],
	"nodes":[
		{
			"mesh":0,
			"name":"Crane"
		},
		{
			"mesh":1,
			"name":"CorneD"
		},
		{
			"mesh":2,
			"name":"CorneG"
		}
	],
	"materials":[
		{
			"doubleSided":true,
			"name":"Crane",
			"pbrMetallicRoughness":{
				"baseColorTexture":{
					"index":0
				},
				"metallicFactor":0,
				"roughnessFactor":0.5
			}
		},
		{
			"doubleSided":true,
			"name":"Corne",
			"pbrMetallicRoughness":{
				"baseColorTexture":{
					"index":1
				},
				"metallicFactor":0,
				"roughnessFactor":0.5
			}
		}
	],
	"meshes":[
		{
			"name":"Cube.001",
			"primitives":[
				{
					"attributes":{
						"POSITION":0,
						"NORMAL":1,
						"TEXCOORD_0":2
					},
					"indices":3,
					"material":0
				}
			]
		},
		{
			"name":"Circle.002",
			"primitives":[
				{
					"attributes":{
						"POSITION":4,
						"NORMAL":5,
						"TEXCOORD_0":6
					},
					"indices":7,
					"material":1
				}
			]
		},
		{
			"name":"Circle",
			"primitives":[
				{
					"attributes":{
						"POSITION":8,
						"NORMAL":9,
						"TEXCOORD_0":10
					},
					"indices":11,
					"material":1
				}
			]
		}
	],
	"textures":[
		{
			"sampler":0,
			"source":0
		},
		{
			"sampler":0,
			"source":1
		}
	],
	"images":[
		{
			"mimeType":"image/png",
			"name":"beige",
			"uri":"textures/beige.png"
		},
		{
			"mimeType":"image/png",
			"name":"noir",
			"uri":"textures/noir.png"
		}
	],
	"accessors":[
		{
			"bufferView":0,
			"componentType":5126,
			"count":13867,
			"max":[
				1.8239641189575195,
				1.484926700592041,
				0.4920421838760376
			],
			"min":[
				-1.5149917602539062,
				-0.10665041208267212,
				-0.7467049956321716
			],
			"type":"VEC3"
		},
		{
			"bufferView":1,
			"componentType":5126,
			"count":13867,
			"type":"VEC3"
		},
		{
			"bufferView":2,
			"componentType":5126,
			"count":13867,
			"type":"VEC2"
		},
		{
			"bufferView":3,
			"componentType":5123,
			"count":21936,
			"type":"SCALAR"
		},
		{
			"bufferView":4,
			"componentType":5126,
			"count":272,
			"max":[
				-0.19523181021213531,
				1.7440260648727417,
				-0.6026382446289062
			],
			"min":[
				-1.4652012586593628,
				0.7163019180297852,
				-1.5614309310913086
			],
			"type":"VEC3"
		},
		{
			"bufferView":5,
			"componentType":5126,
			"count":272,
			"type":"VEC3"
		},
		{
			"bufferView":6,
			"componentType":5126,
			"count":272,
			"type":"VEC2"
		},
		{
			"bufferView":7,
			"componentType":5123,
			"count":420,
			"type":"SCALAR"
		},
		{
			"bufferView":8,
			"componentType":5126,
			"count":272,
			"max":[
				-0.19003772735595703,
				1.7330706119537354,
				1.3118681907653809
			],
			"min":[
				-1.473433256149292,
				0.7252570986747742,
				0.3530755341053009
			],
			"type":"VEC3"
		},
		{
			"bufferView":9,
			"componentType":5126,
			"count":272,
			"type":"VEC3"
		},
		{
			"bufferView":10,
			"componentType":5126,
			"count":272,
			"type":"VEC2"
		},
		{
			"bufferView":11,
			"componentType":5123,
			"count":420,
			"type":"SCALAR"
		}
	],
	"bufferViews":[
		{
			"buffer":0,
			"byteLength":166404,
			"byteOffset":0,
			"target":34962
		},
		{
			"buffer":0,
			"byteLength":166404,
			"byteOffset":166404,
			"target":34962
		},
		{
			"buffer":0,
			"byteLength":110936,
			"byteOffset":332808,
			"target":34962
		},
		{
			"buffer":0,
			"byteLength":43872,
			"byteOffset":443744,
			"target":34963
		},
		{
			"buffer":0,
			"byteLength":3264,
			"byteOffset":487616,
			"target":34962
		},
		{
			"buffer":0,
			"byteLength":3264,
			"byteOffset":490880,
			"target":34962
		},
		{
			"buffer":0,
			"byteLength":2176,
			"byteOffset":494144,
			"target":34962
		},
		{
			"buffer":0,
			"byteLength":840,
			"byteOffset":496320,
			"target":34963
		},
		{
			"buffer":0,
			"byteLength":3264,
			"byteOffset":497160,
			"target":34962
		},
		{
			"buffer":0,
			"byteLength":3264,
			"byteOffset":500424,
			"target":34962
		},
		{
			"buffer":0,
			"byteLength":2176,
			"byteOffset":503688,
			"target":34962
		},
		{
			"buffer":0,
			"byteLength":840,
			"byteOffset":505864,
			"target":34963
		}
	],
	"samplers":[
		{
			"magFilter":9729,
			"minFilter":9987
		}
	],
	"buffers":[
		{
			"byteLength":506704,
			"uri":"crane.bin"
		}
	]
}
