{
	"asset":{
		"generator":"Khronos glTF Blender I/O v4.2.60",
		"version":"2.0"
	},
	"scene":0,
	"scenes":[
		{
			"name":"Scene",
			"nodes":[
				0
			]
		}
	],
	"nodes":[
		{
			"mesh":0,
			"name":"Cube.001"
		}
	],
	"materials":[
		{
			"doubleSided":true,
			"name":"Vert.002",
			"pbrMetallicRoughness":{
				"baseColorTexture":{
					"index":0
				},
				"metallicFactor":0,
				"roughnessFactor":0.5
			}
		},
		{
			"doubleSided":true,
			"name":"Vert2.001",
			"pbrMetallicRoughness":{
				"baseColorTexture":{
					"index":1
				},
				"metallicFactor":0,
				"roughnessFactor":0.5
			}
		},
		{
			"doubleSided":true,
			"name":"Vert3.001",
			"pbrMetallicRoughness":{
				"baseColorTexture":{
					"index":2
				},
				"metallicFactor":0,
				"roughnessFactor":0.5
			}
		}
	],
	"meshes":[
		{
			"name":"Cube.005",
			"primitives":[
				{
					"attributes":{
						"POSITION":0,
						"NORMAL":1,
						"TEXCOORD_0":2
					},
					"indices":3,
					"material":0
				},
				{
					"attributes":{
						"POSITION":4,
						"NORMAL":5,
						"TEXCOORD_0":6
					},
					"indices":7,
					"material":1
				},
				{
					"attributes":{
						"POSITION":8,
						"NORMAL":9,
						"TEXCOORD_0":10
					},
					"indices":11,
					"material":2
				}
			]
		}
	],
	"textures":[
		{
			"sampler":0,
			"source":0
		},
		{
			"sampler":0,
			"source":1
		},
		{
			"sampler":0,
			"source":2
		}
	],
	"images":[
		{
			"mimeType":"image/png",
			"name":"vert",
			"uri":"textures/vert.png"
		},
		{
			"mimeType":"image/png",
			"name":"vert2",
			"uri":"textures/vert2.png"
		},
		{
			"mimeType":"image/png",
			"name":"vert3",
			"uri":"textures/vert3.png"
		}
	],
	"accessors":[
		{
			"bufferView":0,
			"componentType":5126,
			"count":252,
			"max":[
				0.54713374376297,
				2.107635259628296,
				0.7285113334655762
			],
			"min":[
				-0.5959689617156982,
				-0.22957675158977509,
				-0.6826936602592468
			],
			"type":"VEC3"
		},
		{
			"bufferView":1,
			"componentType":5126,
			"count":252,
			"type":"VEC3"
		},
		{
			"bufferView":2,
			"componentType":5126,
			"count":252,
			"type":"VEC2"
		},
		{
			"bufferView":3,
			"componentType":5123,
			"count":378,
			"type":"SCALAR"
		},
		{
			"bufferView":4,
			"componentType":5126,
			"count":56,
			"max":[
				0.11838135123252869,
				2.2009754180908203,
				0.24099934101104736
			],
			"min":[
				-0.13473308086395264,
				-0.22756485641002655,
				-0.04047888517379761
			],
			"type":"VEC3"
		},
		{
			"bufferView":5,
			"componentType":5126,
			"count":56,
			"type":"VEC3"
		},
		{
			"bufferView":6,
			"componentType":5126,
			"count":56,
			"type":"VEC2"
		},
		{
			"bufferView":7,
			"componentType":5123,
			"count":84,
			"type":"SCALAR"
		},
		{
			"bufferView":8,
			"componentType":5126,
			"count":56,
			"max":[
				0.25903189182281494,
				2.701421022415161,
				-0.02780725061893463
			],
			"min":[
				-0.16135205328464508,
				-0.2525365948677063,
				-0.4289900064468384
			],
			"type":"VEC3"
		},
		{
			"bufferView":9,
			"componentType":5126,
			"count":56,
			"type":"VEC3"
		},
		{
			"bufferView":10,
			"componentType":5126,
			"count":56,
			"type":"VEC2"
		},
		{
			"bufferView":11,
			"componentType":5123,
			"count":84,
			"type":"SCALAR"
		}
	],
	"bufferViews":[
		{
			"buffer":0,
			"byteLength":3024,
			"byteOffset":0,
			"target":34962
		},
		{
			"buffer":0,
			"byteLength":3024,
			"byteOffset":3024,
			"target":34962
		},
		{
			"buffer":0,
			"byteLength":2016,
			"byteOffset":6048,
			"target":34962
		},
		{
			"buffer":0,
			"byteLength":756,
			"byteOffset":8064,
			"target":34963
		},
		{
			"buffer":0,
			"byteLength":672,
			"byteOffset":8820,
			"target":34962
		},
		{
			"buffer":0,
			"byteLength":672,
			"byteOffset":9492,
			"target":34962
		},
		{
			"buffer":0,
			"byteLength":448,
			"byteOffset":10164,
			"target":34962
		},
		{
			"buffer":0,
			"byteLength":168,
			"byteOffset":10612,
			"target":34963
		},
		{
			"buffer":0,
			"byteLength":672,
			"byteOffset":10780,
			"target":34962
		},
		{
			"buffer":0,
			"byteLength":672,
			"byteOffset":11452,
			"target":34962
		},
		{
			"buffer":0,
			"byteLength":448,
			"byteOffset":12124,
			"target":34962
		},
		{
			"buffer":0,
			"byteLength":168,
			"byteOffset":12572,
			"target":34963
		}
	],
	"samplers":[
		{
			"magFilter":9729,
			"minFilter":9987
		}
	],
	"buffers":[
		{
			"byteLength":12740,
			"uri":"herbe2.bin"
		}
	]
}
