{
	"asset":{
		"generator":"Khronos glTF Blender I/O v4.2.60",
		"version":"2.0"
	},
	"scene":0,
	"scenes":[
		{
			"name":"Scene",
			"nodes":[
				0
			]
		}
	],
	"nodes":[
		{
			"mesh":0,
			"name":"Icosphere.002",
			"rotation":[
				0,
				-0.98599773645401,
				0,
				0.16675876080989838
			],
			"scale":[
				0.6144764423370361,
				0.6144765019416809,
				0.6144764423370361
			],
			"translation":[
				-1.9984651803970337,
				-0.07641202211380005,
				-0.3828166723251343
			]
		}
	],
	"materials":[
		{
			"doubleSided":true,
			"name":"Rock",
			"pbrMetallicRoughness":{
				"baseColorTexture":{
					"index":0
				},
				"metallicFactor":0,
				"roughnessFactor":0.5
			}
		}
	],
	"meshes":[
		{
			"name":"Icosphere.002",
			"primitives":[
				{
					"attributes":{
						"POSITION":0,
						"NORMAL":1,
						"TEXCOORD_0":2
					},
					"indices":3,
					"material":0
				}
			]
		}
	],
	"textures":[
		{
			"sampler":0,
			"source":0
		}
	],
	"images":[
		{
			"mimeType":"image/png",
			"name":"gris",
			"uri":"textures/gris.png"
		}
	],
	"accessors":[
		{
			"bufferView":0,
			"componentType":5126,
			"count":862,
			"max":[
				1.461098074913025,
				0.5086029171943665,
				1.1148383617401123
			],
			"min":[
				-1.3341041803359985,
				-0.3710640072822571,
				-1.0385165214538574
			],
			"type":"VEC3"
		},
		{
			"bufferView":1,
			"componentType":5126,
			"count":862,
			"type":"VEC3"
		},
		{
			"bufferView":2,
			"componentType":5126,
			"count":862,
			"type":"VEC2"
		},
		{
			"bufferView":3,
			"componentType":5123,
			"count":864,
			"type":"SCALAR"
		}
	],
	"bufferViews":[
		{
			"buffer":0,
			"byteLength":10344,
			"byteOffset":0,
			"target":34962
		},
		{
			"buffer":0,
			"byteLength":10344,
			"byteOffset":10344,
			"target":34962
		},
		{
			"buffer":0,
			"byteLength":6896,
			"byteOffset":20688,
			"target":34962
		},
		{
			"buffer":0,
			"byteLength":1728,
			"byteOffset":27584,
			"target":34963
		}
	],
	"samplers":[
		{
			"magFilter":9729,
			"minFilter":9987
		}
	],
	"buffers":[
		{
			"byteLength":29312,
			"uri":"pierre3.bin"
		}
	]
}
