{
	"asset":{
		"generator":"Khronos glTF Blender I/O v4.2.60",
		"version":"2.0"
	},
	"scene":0,
	"scenes":[
		{
			"name":"Scene",
			"nodes":[
				0,
				1
			]
		}
	],
	"nodes":[
		{
			"mesh":0,
			"name":"tronc",
			"translation":[
				0,
				-0.16108261048793793,
				0
			]
		},
		{
			"mesh":1,
			"name":"feuilles",
			"translation":[
				0,
				-0.16108261048793793,
				0
			]
		}
	],
	"materials":[
		{
			"doubleSided":true,
			"name":"Marron1",
			"pbrMetallicRoughness":{
				"baseColorTexture":{
					"index":0
				},
				"metallicFactor":0,
				"roughnessFactor":0.5
			}
		},
		{
			"doubleSided":true,
			"name":"Marron2",
			"pbrMetallicRoughness":{
				"baseColorTexture":{
					"index":1
				},
				"metallicFactor":0,
				"roughnessFactor":0.5
			}
		},
		{
			"doubleSided":true,
			"name":"Dark_green",
			"pbrMetallicRoughness":{
				"baseColorTexture":{
					"index":2
				},
				"metallicFactor":0,
				"roughnessFactor":0.5
			}
		},
		{
			"doubleSided":true,
			"name":"Green",
			"pbrMetallicRoughness":{
				"baseColorTexture":{
					"index":3
				},
				"metallicFactor":0,
				"roughnessFactor":0.5
			}
		},
		{
			"doubleSided":true,
			"name":"Light Green",
			"pbrMetallicRoughness":{
				"baseColorTexture":{
					"index":4
				},
				"metallicFactor":0,
				"roughnessFactor":0.5
			}
		}
	],
	"meshes":[
		{
			"name":"Cylinder",
			"primitives":[
				{
					"attributes":{
						"POSITION":0,
						"NORMAL":1,
						"TEXCOORD_0":2
					},
					"indices":3,
					"material":0
				},
				{
					"attributes":{
						"POSITION":4,
						"NORMAL":5,
						"TEXCOORD_0":6
					},
					"indices":7,
					"material":1
				}
			]
		},
		{
			"name":"Cube.001",
			"primitives":[
				{
					"attributes":{
						"POSITION":8,
						"NORMAL":9,
						"TEXCOORD_0":10
					},
					"indices":11,
					"material":2
				},
				{
					"attributes":{
						"POSITION":12,
						"NORMAL":13,
						"TEXCOORD_0":14
					},
					"indices":15,
					"material":3
				},
				{
					"attributes":{
						"POSITION":16,
						"NORMAL":17,
						"TEXCOORD_0":18
					},
					"indices":19,
					"material":4
				}
			]
		}
	],
	"textures":[
		{
			"sampler":0,
			"source":0
		},
		{
			"sampler":0,
			"source":1
		},
		{
			"sampler":0,
			"source":2
		},
		{
			"sampler":0,
			"source":3
		},
		{
			"sampler":0,
			"source":4
		}
	],
	"images":[
		{
			"mimeType":"image/png",
			"name":"marron",
			"uri":"textures/marron.png"
		},
		{
			"mimeType":"image/png",
			"name":"marron2",
			"uri":"textures/marron2.png"
		},
		{
			"mimeType":"image/png",
			"name":"vert",
			"uri":"textures/vert.png"
		},
		{
			"mimeType":"image/png",
			"name":"vert2",
			"uri":"textures/vert2.png"
		},
		{
			"mimeType":"image/png",
			"name":"vert3",
			"uri":"textures/vert3.png"
		}
	],
	"accessors":[
		{
			"bufferView":0,
			"componentType":5126,
			"count":208,
			"max":[
				0.495298832654953,
				4.549887180328369,
				0.50269615650177
			],
			"min":[
				-0.7143369317054749,
				-0.13403432071208954,
				-0.5415287017822266
			],
			"type":"VEC3"
		},
		{
			"bufferView":1,
			"componentType":5126,
			"count":208,
			"type":"VEC3"
		},
		{
			"bufferView":2,
			"componentType":5126,
			"count":208,
			"type":"VEC2"
		},
		{
			"bufferView":3,
			"componentType":5123,
			"count":324,
			"type":"SCALAR"
		},
		{
			"bufferView":4,
			"componentType":5126,
			"count":192,
			"max":[
				0.495298832654953,
				4.009639263153076,
				0.50269615650177
			],
			"min":[
				-0.7143369317054749,
				-0.13403432071208954,
				-0.5415287017822266
			],
			"type":"VEC3"
		},
		{
			"bufferView":5,
			"componentType":5126,
			"count":192,
			"type":"VEC3"
		},
		{
			"bufferView":6,
			"componentType":5126,
			"count":192,
			"type":"VEC2"
		},
		{
			"bufferView":7,
			"componentType":5123,
			"count":288,
			"type":"SCALAR"
		},
		{
			"bufferView":8,
			"componentType":5126,
			"count":629,
			"max":[
				2.5722222328186035,
				5.2112321853637695,
				2.415630340576172
			],
			"min":[
				-2.330620765686035,
				3.2943761348724365,
				-2.556947946548462
			],
			"type":"VEC3"
		},
		{
			"bufferView":9,
			"componentType":5126,
			"count":629,
			"type":"VEC3"
		},
		{
			"bufferView":10,
			"componentType":5126,
			"count":629,
			"type":"VEC2"
		},
		{
			"bufferView":11,
			"componentType":5123,
			"count":945,
			"type":"SCALAR"
		},
		{
			"bufferView":12,
			"componentType":5126,
			"count":260,
			"max":[
				2.5743536949157715,
				5.205544948577881,
				2.4016687870025635
			],
			"min":[
				-2.3236937522888184,
				3.324990749359131,
				-2.5578012466430664
			],
			"type":"VEC3"
		},
		{
			"bufferView":13,
			"componentType":5126,
			"count":260,
			"type":"VEC3"
		},
		{
			"bufferView":14,
			"componentType":5126,
			"count":260,
			"type":"VEC2"
		},
		{
			"bufferView":15,
			"componentType":5123,
			"count":390,
			"type":"SCALAR"
		},
		{
			"bufferView":16,
			"componentType":5126,
			"count":467,
			"max":[
				2.576376438140869,
				5.194929122924805,
				2.388420581817627
			],
			"min":[
				-2.3164961338043213,
				3.3472800254821777,
				-2.5587158203125
			],
			"type":"VEC3"
		},
		{
			"bufferView":17,
			"componentType":5126,
			"count":467,
			"type":"VEC3"
		},
		{
			"bufferView":18,
			"componentType":5126,
			"count":467,
			"type":"VEC2"
		},
		{
			"bufferView":19,
			"componentType":5123,
			"count":717,
			"type":"SCALAR"
		}
	],
	"bufferViews":[
		{
			"buffer":0,
			"byteLength":2496,
			"byteOffset":0,
			"target":34962
		},
		{
			"buffer":0,
			"byteLength":2496,
			"byteOffset":2496,
			"target":34962
		},
		{
			"buffer":0,
			"byteLength":1664,
			"byteOffset":4992,
			"target":34962
		},
		{
			"buffer":0,
			"byteLength":648,
			"byteOffset":6656,
			"target":34963
		},
		{
			"buffer":0,
			"byteLength":2304,
			"byteOffset":7304,
			"target":34962
		},
		{
			"buffer":0,
			"byteLength":2304,
			"byteOffset":9608,
			"target":34962
		},
		{
			"buffer":0,
			"byteLength":1536,
			"byteOffset":11912,
			"target":34962
		},
		{
			"buffer":0,
			"byteLength":576,
			"byteOffset":13448,
			"target":34963
		},
		{
			"buffer":0,
			"byteLength":7548,
			"byteOffset":14024,
			"target":34962
		},
		{
			"buffer":0,
			"byteLength":7548,
			"byteOffset":21572,
			"target":34962
		},
		{
			"buffer":0,
			"byteLength":5032,
			"byteOffset":29120,
			"target":34962
		},
		{
			"buffer":0,
			"byteLength":1890,
			"byteOffset":34152,
			"target":34963
		},
		{
			"buffer":0,
			"byteLength":3120,
			"byteOffset":36044,
			"target":34962
		},
		{
			"buffer":0,
			"byteLength":3120,
			"byteOffset":39164,
			"target":34962
		},
		{
			"buffer":0,
			"byteLength":2080,
			"byteOffset":42284,
			"target":34962
		},
		{
			"buffer":0,
			"byteLength":780,
			"byteOffset":44364,
			"target":34963
		},
		{
			"buffer":0,
			"byteLength":5604,
			"byteOffset":45144,
			"target":34962
		},
		{
			"buffer":0,
			"byteLength":5604,
			"byteOffset":50748,
			"target":34962
		},
		{
			"buffer":0,
			"byteLength":3736,
			"byteOffset":56352,
			"target":34962
		},
		{
			"buffer":0,
			"byteLength":1434,
			"byteOffset":60088,
			"target":34963
		}
	],
	"samplers":[
		{
			"magFilter":9729,
			"minFilter":9987
		}
	],
	"buffers":[
		{
			"byteLength":61524,
			"uri":"palmier.bin"
		}
	]
}
