{
	"asset":{
		"generator":"Khronos glTF Blender I/O v4.4.56",
		"version":"2.0"
	},
	"scene":0,
	"scenes":[
		{
			"name":"Scene",
			"nodes":[
				0,
				1,
				2
			]
		}
	],
	"nodes":[
		{
			"mesh":0,
			"name":"cactus",
			"scale":[
				1.5075000524520874,
				1.5075000524520874,
				1.5075000524520874
			]
		},
		{
			"mesh":1,
			"name":"epines",
			"scale":[
				1.5075000524520874,
				1.5075000524520874,
				1.5075000524520874
			]
		},
		{
			"mesh":2,
			"name":"fleur",
			"scale":[
				1.5075000524520874,
				1.5075000524520874,
				1.5075000524520874
			]
		}
	],
	"materials":[
		{
			"doubleSided":true,
			"name":"solid_green",
			"pbrMetallicRoughness":{
				"baseColorTexture":{
					"index":0
				},
				"metallicFactor":0,
				"roughnessFactor":0.5
			}
		},
		{
			"doubleSided":true,
			"name":"blanc ",
			"pbrMetallicRoughness":{
				"baseColorTexture":{
					"index":1
				},
				"metallicFactor":0,
				"roughnessFactor":0.5
			}
		},
		{
			"doubleSided":true,
			"name":"Centre_Fleur",
			"pbrMetallicRoughness":{
				"baseColorTexture":{
					"index":2
				},
				"metallicFactor":0,
				"roughnessFactor":0.5
			}
		},
		{
			"doubleSided":true,
			"name":"Petales1",
			"pbrMetallicRoughness":{
				"baseColorTexture":{
					"index":3
				},
				"metallicFactor":0,
				"roughnessFactor":0.5
			}
		},
		{
			"doubleSided":true,
			"name":"Petales2",
			"pbrMetallicRoughness":{
				"baseColorTexture":{
					"index":4
				},
				"metallicFactor":0,
				"roughnessFactor":0.5
			}
		}
	],
	"meshes":[
		{
			"name":"Cylinder",
			"primitives":[
				{
					"attributes":{
						"POSITION":0,
						"NORMAL":1,
						"TEXCOORD_0":2
					},
					"indices":3,
					"material":0
				}
			]
		},
		{
			"name":"Cone.004",
			"primitives":[
				{
					"attributes":{
						"POSITION":4,
						"NORMAL":5,
						"TEXCOORD_0":6
					},
					"indices":7,
					"material":1
				}
			]
		},
		{
			"name":"Circle",
			"primitives":[
				{
					"attributes":{
						"POSITION":8,
						"NORMAL":9,
						"TEXCOORD_0":10
					},
					"indices":11,
					"material":2
				},
				{
					"attributes":{
						"POSITION":12,
						"NORMAL":13,
						"TEXCOORD_0":14
					},
					"indices":15,
					"material":3
				},
				{
					"attributes":{
						"POSITION":16,
						"NORMAL":17,
						"TEXCOORD_0":18
					},
					"indices":19,
					"material":4
				}
			]
		}
	],
	"textures":[
		{
			"sampler":0,
			"source":0
		},
		{
			"sampler":0,
			"source":1
		},
		{
			"sampler":0,
			"source":2
		},
		{
			"sampler":0,
			"source":3
		},
		{
			"sampler":0,
			"source":4
		}
	],
	"images":[
		{
			"mimeType":"image/png",
			"name":"Solid_green",
			"uri":"textures/vert.png"
		},
		{
			"mimeType":"image/png",
			"name":"Solid_white",
			"uri":"textures/blanc.png"
		},
		{
			"mimeType":"image/png",
			"name":"Solid_yellow",
			"uri":"textures/jaune.png"
		},
		{
			"mimeType":"image/png",
			"name":"rose",
			"uri":"textures/rose.png"
		},
		{
			"mimeType":"image/png",
			"name":"violet",
			"uri":"textures/violet.png"
		}
	],
	"accessors":[
		{
			"bufferView":0,
			"componentType":5126,
			"count":128,
			"max":[
				0.3355831205844879,
				0.6035074591636658,
				0.37963277101516724
			],
			"min":[
				-0.36155378818511963,
				0.004068166017532349,
				-0.3175041377544403
			],
			"type":"VEC3"
		},
		{
			"bufferView":1,
			"componentType":5126,
			"count":128,
			"type":"VEC3"
		},
		{
			"bufferView":2,
			"componentType":5126,
			"count":128,
			"type":"VEC2"
		},
		{
			"bufferView":3,
			"componentType":5123,
			"count":186,
			"type":"SCALAR"
		},
		{
			"bufferView":4,
			"componentType":5126,
			"count":216,
			"max":[
				0.3373468220233917,
				0.6326704025268555,
				0.3935287594795227
			],
			"min":[
				-0.38169825077056885,
				0.04218631982803345,
				-0.31254494190216064
			],
			"type":"VEC3"
		},
		{
			"bufferView":5,
			"componentType":5126,
			"count":216,
			"type":"VEC3"
		},
		{
			"bufferView":6,
			"componentType":5126,
			"count":216,
			"type":"VEC2"
		},
		{
			"bufferView":7,
			"componentType":5123,
			"count":216,
			"type":"SCALAR"
		},
		{
			"bufferView":8,
			"componentType":5126,
			"count":216,
			"max":[
				0.2814793586730957,
				0.5829111933708191,
				0.25651806592941284
			],
			"min":[
				-0.3044181764125824,
				0.4462288022041321,
				-0.12021113932132721
			],
			"type":"VEC3"
		},
		{
			"bufferView":9,
			"componentType":5126,
			"count":216,
			"type":"VEC3"
		},
		{
			"bufferView":10,
			"componentType":5126,
			"count":216,
			"type":"VEC2"
		},
		{
			"bufferView":11,
			"componentType":5123,
			"count":384,
			"type":"SCALAR"
		},
		{
			"bufferView":12,
			"componentType":5126,
			"count":160,
			"max":[
				0.30781760811805725,
				0.609512448310852,
				0.2704075872898102
			],
			"min":[
				-0.32682347297668457,
				0.4247428774833679,
				-0.1392679512500763
			],
			"type":"VEC3"
		},
		{
			"bufferView":13,
			"componentType":5126,
			"count":160,
			"type":"VEC3"
		},
		{
			"bufferView":14,
			"componentType":5126,
			"count":160,
			"type":"VEC2"
		},
		{
			"bufferView":15,
			"componentType":5123,
			"count":240,
			"type":"SCALAR"
		},
		{
			"bufferView":16,
			"componentType":5126,
			"count":160,
			"max":[
				0.30781760811805725,
				0.6092360019683838,
				0.2704075872898102
			],
			"min":[
				-0.3278048634529114,
				0.41660964488983154,
				-0.1392679512500763
			],
			"type":"VEC3"
		},
		{
			"bufferView":17,
			"componentType":5126,
			"count":160,
			"type":"VEC3"
		},
		{
			"bufferView":18,
			"componentType":5126,
			"count":160,
			"type":"VEC2"
		},
		{
			"bufferView":19,
			"componentType":5123,
			"count":240,
			"type":"SCALAR"
		}
	],
	"bufferViews":[
		{
			"buffer":0,
			"byteLength":1536,
			"byteOffset":0,
			"target":34962
		},
		{
			"buffer":0,
			"byteLength":1536,
			"byteOffset":1536,
			"target":34962
		},
		{
			"buffer":0,
			"byteLength":1024,
			"byteOffset":3072,
			"target":34962
		},
		{
			"buffer":0,
			"byteLength":372,
			"byteOffset":4096,
			"target":34963
		},
		{
			"buffer":0,
			"byteLength":2592,
			"byteOffset":4468,
			"target":34962
		},
		{
			"buffer":0,
			"byteLength":2592,
			"byteOffset":7060,
			"target":34962
		},
		{
			"buffer":0,
			"byteLength":1728,
			"byteOffset":9652,
			"target":34962
		},
		{
			"buffer":0,
			"byteLength":432,
			"byteOffset":11380,
			"target":34963
		},
		{
			"buffer":0,
			"byteLength":2592,
			"byteOffset":11812,
			"target":34962
		},
		{
			"buffer":0,
			"byteLength":2592,
			"byteOffset":14404,
			"target":34962
		},
		{
			"buffer":0,
			"byteLength":1728,
			"byteOffset":16996,
			"target":34962
		},
		{
			"buffer":0,
			"byteLength":768,
			"byteOffset":18724,
			"target":34963
		},
		{
			"buffer":0,
			"byteLength":1920,
			"byteOffset":19492,
			"target":34962
		},
		{
			"buffer":0,
			"byteLength":1920,
			"byteOffset":21412,
			"target":34962
		},
		{
			"buffer":0,
			"byteLength":1280,
			"byteOffset":23332,
			"target":34962
		},
		{
			"buffer":0,
			"byteLength":480,
			"byteOffset":24612,
			"target":34963
		},
		{
			"buffer":0,
			"byteLength":1920,
			"byteOffset":25092,
			"target":34962
		},
		{
			"buffer":0,
			"byteLength":1920,
			"byteOffset":27012,
			"target":34962
		},
		{
			"buffer":0,
			"byteLength":1280,
			"byteOffset":28932,
			"target":34962
		},
		{
			"buffer":0,
			"byteLength":480,
			"byteOffset":30212,
			"target":34963
		}
	],
	"samplers":[
		{
			"magFilter":9729,
			"minFilter":9987
		}
	],
	"buffers":[
		{
			"byteLength":30692,
			"uri":"cactus3.bin"
		}
	]
}
