{
	"asset":{
		"generator":"Khronos glTF Blender I/O v4.2.60",
		"version":"2.0"
	},
	"scene":0,
	"scenes":[
		{
			"name":"Scene",
			"nodes":[
				0
			]
		}
	],
	"nodes":[
		{
			"mesh":0,
			"name":"bois2"
		}
	],
	"materials":[
		{
			"doubleSided":true,
			"name":"Log.001",
			"pbrMetallicRoughness":{
				"baseColorTexture":{
					"index":0
				},
				"metallicFactor":0,
				"roughnessFactor":0.5
			}
		},
		{
			"doubleSided":true,
			"name":"Wood Light.001",
			"pbrMetallicRoughness":{
				"baseColorTexture":{
					"index":1
				},
				"metallicFactor":0,
				"roughnessFactor":0.5
			}
		}
	],
	"meshes":[
		{
			"name":"Circle.001",
			"primitives":[
				{
					"attributes":{
						"POSITION":0,
						"NORMAL":1,
						"TEXCOORD_0":2
					},
					"indices":3,
					"material":0
				},
				{
					"attributes":{
						"POSITION":4,
						"NORMAL":5,
						"TEXCOORD_0":6
					},
					"indices":7,
					"material":1
				}
			]
		}
	],
	"textures":[
		{
			"sampler":0,
			"source":0
		},
		{
			"sampler":0,
			"source":1
		}
	],
	"images":[
		{
			"mimeType":"image/png",
			"name":"marron",
			"uri":"textures/marron.png"
		},
		{
			"mimeType":"image/png",
			"name":"marron_clair",
			"uri":"textures/marron_clair.png"
		}
	],
	"accessors":[
		{
			"bufferView":0,
			"componentType":5126,
			"count":1284,
			"max":[
				0.3684263825416565,
				3.3527512550354004,
				0.8759536147117615
			],
			"min":[
				-0.6641901135444641,
				-0.15759718418121338,
				-0.7791494727134705
			],
			"type":"VEC3"
		},
		{
			"bufferView":1,
			"componentType":5126,
			"count":1284,
			"type":"VEC3"
		},
		{
			"bufferView":2,
			"componentType":5126,
			"count":1284,
			"type":"VEC2"
		},
		{
			"bufferView":3,
			"componentType":5123,
			"count":1974,
			"type":"SCALAR"
		},
		{
			"bufferView":4,
			"componentType":5126,
			"count":472,
			"max":[
				0.3684263825416565,
				3.3527512550354004,
				0.5605782270431519
			],
			"min":[
				-0.40370243787765503,
				-0.15780997276306152,
				-0.3945464789867401
			],
			"type":"VEC3"
		},
		{
			"bufferView":5,
			"componentType":5126,
			"count":472,
			"type":"VEC3"
		},
		{
			"bufferView":6,
			"componentType":5126,
			"count":472,
			"type":"VEC2"
		},
		{
			"bufferView":7,
			"componentType":5123,
			"count":738,
			"type":"SCALAR"
		}
	],
	"bufferViews":[
		{
			"buffer":0,
			"byteLength":15408,
			"byteOffset":0,
			"target":34962
		},
		{
			"buffer":0,
			"byteLength":15408,
			"byteOffset":15408,
			"target":34962
		},
		{
			"buffer":0,
			"byteLength":10272,
			"byteOffset":30816,
			"target":34962
		},
		{
			"buffer":0,
			"byteLength":3948,
			"byteOffset":41088,
			"target":34963
		},
		{
			"buffer":0,
			"byteLength":5664,
			"byteOffset":45036,
			"target":34962
		},
		{
			"buffer":0,
			"byteLength":5664,
			"byteOffset":50700,
			"target":34962
		},
		{
			"buffer":0,
			"byteLength":3776,
			"byteOffset":56364,
			"target":34962
		},
		{
			"buffer":0,
			"byteLength":1476,
			"byteOffset":60140,
			"target":34963
		}
	],
	"samplers":[
		{
			"magFilter":9729,
			"minFilter":9987
		}
	],
	"buffers":[
		{
			"byteLength":61616,
			"uri":"bois2.bin"
		}
	]
}
