{
	"asset":{
		"generator":"Khronos glTF Blender I/O v4.2.60",
		"version":"2.0"
	},
	"scene":0,
	"scenes":[
		{
			"name":"Scene",
			"nodes":[
				0
			]
		}
	],
	"nodes":[
		{
			"mesh":0,
			"name":"bois1"
		}
	],
	"materials":[
		{
			"doubleSided":true,
			"name":"Log",
			"pbrMetallicRoughness":{
				"baseColorTexture":{
					"index":0
				},
				"metallicFactor":0,
				"roughnessFactor":0.5
			}
		},
		{
			"doubleSided":true,
			"name":"Wood Light",
			"pbrMetallicRoughness":{
				"baseColorTexture":{
					"index":1
				},
				"metallicFactor":0,
				"roughnessFactor":0.5
			}
		}
	],
	"meshes":[
		{
			"name":"Circle",
			"primitives":[
				{
					"attributes":{
						"POSITION":0,
						"NORMAL":1,
						"TEXCOORD_0":2
					},
					"indices":3,
					"material":0
				},
				{
					"attributes":{
						"POSITION":4,
						"NORMAL":5,
						"TEXCOORD_0":6
					},
					"indices":7,
					"material":1
				}
			]
		}
	],
	"textures":[
		{
			"sampler":0,
			"source":0
		},
		{
			"sampler":0,
			"source":1
		}
	],
	"images":[
		{
			"mimeType":"image/png",
			"name":"marron",
			"uri":"textures/marron.png"
		},
		{
			"mimeType":"image/png",
			"name":"marron_clair",
			"uri":"textures/marron_clair.png"
		}
	],
	"accessors":[
		{
			"bufferView":0,
			"componentType":5126,
			"count":949,
			"max":[
				1.4096648693084717,
				0.7375050783157349,
				0.812716543674469
			],
			"min":[
				-1.5493648052215576,
				-0.11866524815559387,
				-0.8510167002677917
			],
			"type":"VEC3"
		},
		{
			"bufferView":1,
			"componentType":5126,
			"count":949,
			"type":"VEC3"
		},
		{
			"bufferView":2,
			"componentType":5126,
			"count":949,
			"type":"VEC2"
		},
		{
			"bufferView":3,
			"componentType":5123,
			"count":1449,
			"type":"SCALAR"
		},
		{
			"bufferView":4,
			"componentType":5126,
			"count":440,
			"max":[
				1.4096648693084717,
				0.7375050783157349,
				0.5732062458992004
			],
			"min":[
				-1.5493648052215576,
				-0.10049670934677124,
				-0.3732598125934601
			],
			"type":"VEC3"
		},
		{
			"bufferView":5,
			"componentType":5126,
			"count":440,
			"type":"VEC3"
		},
		{
			"bufferView":6,
			"componentType":5126,
			"count":440,
			"type":"VEC2"
		},
		{
			"bufferView":7,
			"componentType":5123,
			"count":690,
			"type":"SCALAR"
		}
	],
	"bufferViews":[
		{
			"buffer":0,
			"byteLength":11388,
			"byteOffset":0,
			"target":34962
		},
		{
			"buffer":0,
			"byteLength":11388,
			"byteOffset":11388,
			"target":34962
		},
		{
			"buffer":0,
			"byteLength":7592,
			"byteOffset":22776,
			"target":34962
		},
		{
			"buffer":0,
			"byteLength":2898,
			"byteOffset":30368,
			"target":34963
		},
		{
			"buffer":0,
			"byteLength":5280,
			"byteOffset":33268,
			"target":34962
		},
		{
			"buffer":0,
			"byteLength":5280,
			"byteOffset":38548,
			"target":34962
		},
		{
			"buffer":0,
			"byteLength":3520,
			"byteOffset":43828,
			"target":34962
		},
		{
			"buffer":0,
			"byteLength":1380,
			"byteOffset":47348,
			"target":34963
		}
	],
	"samplers":[
		{
			"magFilter":9729,
			"minFilter":9987
		}
	],
	"buffers":[
		{
			"byteLength":48728,
			"uri":"bois1.bin"
		}
	]
}
