{
	"asset":{
		"generator":"Khronos glTF Blender I/O v4.4.56",
		"version":"2.0"
	},
	"scene":0,
	"scenes":[
		{
			"name":"Scene",
			"nodes":[
				0,
				1,
				2,
				3,
				4,
				5,
				6,
				7,
				8,
				9,
				10,
				11
			]
		}
	],
	"nodes":[
		{
			"mesh":0,
			"name":"Planche"
		},
		{
			"mesh":1,
			"name":"clous"
		},
		{
			"mesh":2,
			"name":"surface principale"
		},
		{
			"mesh":3,
			"name":"planche qui maintient gauche"
		},
		{
			"mesh":4,
			"name":"planche qui maintient droite"
		},
		{
			"mesh":5,
			"name":"Arri\u00e8re"
		},
		{
			"mesh":6,
			"name":"barre du bas"
		},
		{
			"mesh":7,
			"name":"roueARG"
		},
		{
			"mesh":8,
			"name":"roueARD"
		},
		{
			"mesh":9,
			"name":"roueAVG"
		},
		{
			"mesh":10,
			"name":"roueAVD"
		},
		{
			"name":"Cube"
		}
	],
	"materials":[
		{
			"doubleSided":true,
			"name":"marron_clair",
			"pbrMetallicRoughness":{
				"baseColorTexture":{
					"index":0
				},
				"metallicFactor":0,
				"roughnessFactor":0.5
			}
		},
		{
			"doubleSided":true,
			"name":"gris_clair",
			"pbrMetallicRoughness":{
				"baseColorTexture":{
					"index":1
				},
				"metallicFactor":0,
				"roughnessFactor":0.5
			}
		}
	],
	"meshes":[
		{
			"name":"Cube.001",
			"primitives":[
				{
					"attributes":{
						"POSITION":0,
						"NORMAL":1,
						"TEXCOORD_0":2
					},
					"indices":3,
					"material":0
				}
			]
		},
		{
			"name":"Sphere.015",
			"primitives":[
				{
					"attributes":{
						"POSITION":4,
						"NORMAL":5,
						"TEXCOORD_0":6
					},
					"indices":7,
					"material":1
				}
			]
		},
		{
			"name":"Cube",
			"primitives":[
				{
					"attributes":{
						"POSITION":8,
						"NORMAL":9,
						"TEXCOORD_0":10
					},
					"indices":11,
					"material":0
				}
			]
		},
		{
			"name":"Cube.002",
			"primitives":[
				{
					"attributes":{
						"POSITION":12,
						"NORMAL":13,
						"TEXCOORD_0":14
					},
					"indices":15,
					"material":0
				}
			]
		},
		{
			"name":"Cube.003",
			"primitives":[
				{
					"attributes":{
						"POSITION":16,
						"NORMAL":17,
						"TEXCOORD_0":18
					},
					"indices":19,
					"material":0
				}
			]
		},
		{
			"name":"Cube.004",
			"primitives":[
				{
					"attributes":{
						"POSITION":20,
						"NORMAL":21,
						"TEXCOORD_0":22
					},
					"indices":23,
					"material":0
				}
			]
		},
		{
			"name":"Cube.008",
			"primitives":[
				{
					"attributes":{
						"POSITION":24,
						"NORMAL":25,
						"TEXCOORD_0":26
					},
					"indices":27,
					"material":0
				}
			]
		},
		{
			"name":"Cylinder.001",
			"primitives":[
				{
					"attributes":{
						"POSITION":28,
						"NORMAL":29,
						"TEXCOORD_0":30
					},
					"indices":31,
					"material":1
				},
				{
					"attributes":{
						"POSITION":32,
						"NORMAL":33,
						"TEXCOORD_0":34
					},
					"indices":35,
					"material":0
				}
			]
		},
		{
			"name":"Cylinder.002",
			"primitives":[
				{
					"attributes":{
						"POSITION":36,
						"NORMAL":37,
						"TEXCOORD_0":38
					},
					"indices":35,
					"material":0
				},
				{
					"attributes":{
						"POSITION":39,
						"NORMAL":40,
						"TEXCOORD_0":41
					},
					"indices":31,
					"material":1
				}
			]
		},
		{
			"name":"Cylinder.003",
			"primitives":[
				{
					"attributes":{
						"POSITION":42,
						"NORMAL":43,
						"TEXCOORD_0":44
					},
					"indices":45,
					"material":0
				},
				{
					"attributes":{
						"POSITION":46,
						"NORMAL":47,
						"TEXCOORD_0":48
					},
					"indices":49,
					"material":1
				}
			]
		},
		{
			"name":"Cylinder.004",
			"primitives":[
				{
					"attributes":{
						"POSITION":50,
						"NORMAL":51,
						"TEXCOORD_0":52
					},
					"indices":35,
					"material":0
				},
				{
					"attributes":{
						"POSITION":53,
						"NORMAL":54,
						"TEXCOORD_0":55
					},
					"indices":31,
					"material":1
				}
			]
		}
	],
	"textures":[
		{
			"sampler":0,
			"source":0
		},
		{
			"sampler":0,
			"source":1
		}
	],
	"images":[
		{
			"mimeType":"image/png",
			"name":"Light_brown",
			"uri":"textures/Light_brown.png"
		},
		{
			"mimeType":"image/png",
			"name":"Solid_grey.svg",
			"uri":"textures/gris.png"
		}
	],
	"accessors":[
		{
			"bufferView":0,
			"componentType":5126,
			"count":436,
			"max":[
				1.0052200555801392,
				1.7631422281265259,
				0.6083834171295166
			],
			"min":[
				-1.0085046291351318,
				0.721333384513855,
				-0.6428642272949219
			],
			"type":"VEC3"
		},
		{
			"bufferView":1,
			"componentType":5126,
			"count":436,
			"type":"VEC3"
		},
		{
			"bufferView":2,
			"componentType":5126,
			"count":436,
			"type":"VEC2"
		},
		{
			"bufferView":3,
			"componentType":5123,
			"count":672,
			"type":"SCALAR"
		},
		{
			"bufferView":4,
			"componentType":5126,
			"count":1172,
			"max":[
				0.9180088043212891,
				1.7357890605926514,
				0.6185604333877563
			],
			"min":[
				-0.9294750094413757,
				0.7340351939201355,
				-0.6502602100372314
			],
			"type":"VEC3"
		},
		{
			"bufferView":5,
			"componentType":5126,
			"count":1172,
			"type":"VEC3"
		},
		{
			"bufferView":6,
			"componentType":5126,
			"count":1172,
			"type":"VEC2"
		},
		{
			"bufferView":7,
			"componentType":5123,
			"count":1404,
			"type":"SCALAR"
		},
		{
			"bufferView":8,
			"componentType":5126,
			"count":370,
			"max":[
				1.0800849199295044,
				0.7403650283813477,
				0.44261807203292847
			],
			"min":[
				-1.095494270324707,
				0.6372537016868591,
				-0.5661543607711792
			],
			"type":"VEC3"
		},
		{
			"bufferView":9,
			"componentType":5126,
			"count":370,
			"type":"VEC3"
		},
		{
			"bufferView":10,
			"componentType":5126,
			"count":370,
			"type":"VEC2"
		},
		{
			"bufferView":11,
			"componentType":5123,
			"count":588,
			"type":"SCALAR"
		},
		{
			"bufferView":12,
			"componentType":5126,
			"count":144,
			"max":[
				0.9656769633293152,
				1.7675443887710571,
				0.545503556728363
			],
			"min":[
				-0.9614275097846985,
				0.7116749286651611,
				0.3365246057510376
			],
			"type":"VEC3"
		},
		{
			"bufferView":13,
			"componentType":5126,
			"count":144,
			"type":"VEC3"
		},
		{
			"bufferView":14,
			"componentType":5126,
			"count":144,
			"type":"VEC2"
		},
		{
			"bufferView":15,
			"componentType":5123,
			"count":216,
			"type":"SCALAR"
		},
		{
			"bufferView":16,
			"componentType":5126,
			"count":48,
			"max":[
				0.9685497283935547,
				1.768454670906067,
				-0.44411975145339966
			],
			"min":[
				-0.9685496687889099,
				0.7192602157592773,
				-0.5689808130264282
			],
			"type":"VEC3"
		},
		{
			"bufferView":17,
			"componentType":5126,
			"count":48,
			"type":"VEC3"
		},
		{
			"bufferView":18,
			"componentType":5126,
			"count":48,
			"type":"VEC2"
		},
		{
			"bufferView":19,
			"componentType":5123,
			"count":72,
			"type":"SCALAR"
		},
		{
			"bufferView":20,
			"componentType":5126,
			"count":204,
			"max":[
				0.9690735340118408,
				1.7417253255844116,
				0.5358819961547852
			],
			"min":[
				0.8597975373268127,
				0.6349226236343384,
				-0.5736730098724365
			],
			"type":"VEC3"
		},
		{
			"bufferView":21,
			"componentType":5126,
			"count":204,
			"type":"VEC3"
		},
		{
			"bufferView":22,
			"componentType":5126,
			"count":204,
			"type":"VEC2"
		},
		{
			"bufferView":23,
			"componentType":5123,
			"count":336,
			"type":"SCALAR"
		},
		{
			"bufferView":24,
			"componentType":5126,
			"count":176,
			"max":[
				1.2301028966903687,
				0.7097498178482056,
				0.4972912073135376
			],
			"min":[
				-1.8252084255218506,
				0.3772937059402466,
				-0.6043412685394287
			],
			"type":"VEC3"
		},
		{
			"bufferView":25,
			"componentType":5126,
			"count":176,
			"type":"VEC3"
		},
		{
			"bufferView":26,
			"componentType":5126,
			"count":176,
			"type":"VEC2"
		},
		{
			"bufferView":27,
			"componentType":5123,
			"count":264,
			"type":"SCALAR"
		},
		{
			"bufferView":28,
			"componentType":5126,
			"count":60,
			"max":[
				0.9903051853179932,
				0.6173744201660156,
				0.5850105285644531
			],
			"min":[
				0.7427048683166504,
				0.35703206062316895,
				0.48114514350891113
			],
			"type":"VEC3"
		},
		{
			"bufferView":29,
			"componentType":5126,
			"count":60,
			"type":"VEC3"
		},
		{
			"bufferView":30,
			"componentType":5126,
			"count":60,
			"type":"VEC2"
		},
		{
			"bufferView":31,
			"componentType":5123,
			"count":108,
			"type":"SCALAR"
		},
		{
			"bufferView":32,
			"componentType":5126,
			"count":444,
			"max":[
				1.3123060464859009,
				0.9559460878372192,
				0.5876210927963257
			],
			"min":[
				0.42070403695106506,
				0.018460333347320557,
				0.4785345792770386
			],
			"type":"VEC3"
		},
		{
			"bufferView":33,
			"componentType":5126,
			"count":444,
			"type":"VEC3"
		},
		{
			"bufferView":34,
			"componentType":5126,
			"count":444,
			"type":"VEC2"
		},
		{
			"bufferView":35,
			"componentType":5123,
			"count":720,
			"type":"SCALAR"
		},
		{
			"bufferView":36,
			"componentType":5126,
			"count":444,
			"max":[
				1.3123060464859009,
				0.9559460878372192,
				-0.5821889638900757
			],
			"min":[
				0.42070403695106506,
				0.018460333347320557,
				-0.6912754774093628
			],
			"type":"VEC3"
		},
		{
			"bufferView":37,
			"componentType":5126,
			"count":444,
			"type":"VEC3"
		},
		{
			"bufferView":38,
			"componentType":5126,
			"count":444,
			"type":"VEC2"
		},
		{
			"bufferView":39,
			"componentType":5126,
			"count":60,
			"max":[
				0.9903051853179932,
				0.6173744201660156,
				-0.5847995281219482
			],
			"min":[
				0.7427048683166504,
				0.35703206062316895,
				-0.6886649131774902
			],
			"type":"VEC3"
		},
		{
			"bufferView":40,
			"componentType":5126,
			"count":60,
			"type":"VEC3"
		},
		{
			"bufferView":41,
			"componentType":5126,
			"count":60,
			"type":"VEC2"
		},
		{
			"bufferView":42,
			"componentType":5126,
			"count":448,
			"max":[
				-0.3332923948764801,
				0.9559460878372192,
				0.5876210927963257
			],
			"min":[
				-1.224894404411316,
				0.018460333347320557,
				0.4785345792770386
			],
			"type":"VEC3"
		},
		{
			"bufferView":43,
			"componentType":5126,
			"count":448,
			"type":"VEC3"
		},
		{
			"bufferView":44,
			"componentType":5126,
			"count":448,
			"type":"VEC2"
		},
		{
			"bufferView":45,
			"componentType":5123,
			"count":726,
			"type":"SCALAR"
		},
		{
			"bufferView":46,
			"componentType":5126,
			"count":56,
			"max":[
				-0.6552932262420654,
				0.6173744201660156,
				0.5850105285644531
			],
			"min":[
				-0.9028935432434082,
				0.35703206062316895,
				0.48114514350891113
			],
			"type":"VEC3"
		},
		{
			"bufferView":47,
			"componentType":5126,
			"count":56,
			"type":"VEC3"
		},
		{
			"bufferView":48,
			"componentType":5126,
			"count":56,
			"type":"VEC2"
		},
		{
			"bufferView":49,
			"componentType":5123,
			"count":102,
			"type":"SCALAR"
		},
		{
			"bufferView":50,
			"componentType":5126,
			"count":444,
			"max":[
				-0.3332923948764801,
				0.9559460878372192,
				-0.5647177696228027
			],
			"min":[
				-1.224894404411316,
				0.018460333347320557,
				-0.6738042831420898
			],
			"type":"VEC3"
		},
		{
			"bufferView":51,
			"componentType":5126,
			"count":444,
			"type":"VEC3"
		},
		{
			"bufferView":52,
			"componentType":5126,
			"count":444,
			"type":"VEC2"
		},
		{
			"bufferView":53,
			"componentType":5126,
			"count":60,
			"max":[
				-0.6552932262420654,
				0.6173744201660156,
				-0.5673283338546753
			],
			"min":[
				-0.9028935432434082,
				0.35703206062316895,
				-0.6711937189102173
			],
			"type":"VEC3"
		},
		{
			"bufferView":54,
			"componentType":5126,
			"count":60,
			"type":"VEC3"
		},
		{
			"bufferView":55,
			"componentType":5126,
			"count":60,
			"type":"VEC2"
		}
	],
	"bufferViews":[
		{
			"buffer":0,
			"byteLength":5232,
			"byteOffset":0,
			"target":34962
		},
		{
			"buffer":0,
			"byteLength":5232,
			"byteOffset":5232,
			"target":34962
		},
		{
			"buffer":0,
			"byteLength":3488,
			"byteOffset":10464,
			"target":34962
		},
		{
			"buffer":0,
			"byteLength":1344,
			"byteOffset":13952,
			"target":34963
		},
		{
			"buffer":0,
			"byteLength":14064,
			"byteOffset":15296,
			"target":34962
		},
		{
			"buffer":0,
			"byteLength":14064,
			"byteOffset":29360,
			"target":34962
		},
		{
			"buffer":0,
			"byteLength":9376,
			"byteOffset":43424,
			"target":34962
		},
		{
			"buffer":0,
			"byteLength":2808,
			"byteOffset":52800,
			"target":34963
		},
		{
			"buffer":0,
			"byteLength":4440,
			"byteOffset":55608,
			"target":34962
		},
		{
			"buffer":0,
			"byteLength":4440,
			"byteOffset":60048,
			"target":34962
		},
		{
			"buffer":0,
			"byteLength":2960,
			"byteOffset":64488,
			"target":34962
		},
		{
			"buffer":0,
			"byteLength":1176,
			"byteOffset":67448,
			"target":34963
		},
		{
			"buffer":0,
			"byteLength":1728,
			"byteOffset":68624,
			"target":34962
		},
		{
			"buffer":0,
			"byteLength":1728,
			"byteOffset":70352,
			"target":34962
		},
		{
			"buffer":0,
			"byteLength":1152,
			"byteOffset":72080,
			"target":34962
		},
		{
			"buffer":0,
			"byteLength":432,
			"byteOffset":73232,
			"target":34963
		},
		{
			"buffer":0,
			"byteLength":576,
			"byteOffset":73664,
			"target":34962
		},
		{
			"buffer":0,
			"byteLength":576,
			"byteOffset":74240,
			"target":34962
		},
		{
			"buffer":0,
			"byteLength":384,
			"byteOffset":74816,
			"target":34962
		},
		{
			"buffer":0,
			"byteLength":144,
			"byteOffset":75200,
			"target":34963
		},
		{
			"buffer":0,
			"byteLength":2448,
			"byteOffset":75344,
			"target":34962
		},
		{
			"buffer":0,
			"byteLength":2448,
			"byteOffset":77792,
			"target":34962
		},
		{
			"buffer":0,
			"byteLength":1632,
			"byteOffset":80240,
			"target":34962
		},
		{
			"buffer":0,
			"byteLength":672,
			"byteOffset":81872,
			"target":34963
		},
		{
			"buffer":0,
			"byteLength":2112,
			"byteOffset":82544,
			"target":34962
		},
		{
			"buffer":0,
			"byteLength":2112,
			"byteOffset":84656,
			"target":34962
		},
		{
			"buffer":0,
			"byteLength":1408,
			"byteOffset":86768,
			"target":34962
		},
		{
			"buffer":0,
			"byteLength":528,
			"byteOffset":88176,
			"target":34963
		},
		{
			"buffer":0,
			"byteLength":720,
			"byteOffset":88704,
			"target":34962
		},
		{
			"buffer":0,
			"byteLength":720,
			"byteOffset":89424,
			"target":34962
		},
		{
			"buffer":0,
			"byteLength":480,
			"byteOffset":90144,
			"target":34962
		},
		{
			"buffer":0,
			"byteLength":216,
			"byteOffset":90624,
			"target":34963
		},
		{
			"buffer":0,
			"byteLength":5328,
			"byteOffset":90840,
			"target":34962
		},
		{
			"buffer":0,
			"byteLength":5328,
			"byteOffset":96168,
			"target":34962
		},
		{
			"buffer":0,
			"byteLength":3552,
			"byteOffset":101496,
			"target":34962
		},
		{
			"buffer":0,
			"byteLength":1440,
			"byteOffset":105048,
			"target":34963
		},
		{
			"buffer":0,
			"byteLength":5328,
			"byteOffset":106488,
			"target":34962
		},
		{
			"buffer":0,
			"byteLength":5328,
			"byteOffset":111816,
			"target":34962
		},
		{
			"buffer":0,
			"byteLength":3552,
			"byteOffset":117144,
			"target":34962
		},
		{
			"buffer":0,
			"byteLength":720,
			"byteOffset":120696,
			"target":34962
		},
		{
			"buffer":0,
			"byteLength":720,
			"byteOffset":121416,
			"target":34962
		},
		{
			"buffer":0,
			"byteLength":480,
			"byteOffset":122136,
			"target":34962
		},
		{
			"buffer":0,
			"byteLength":5376,
			"byteOffset":122616,
			"target":34962
		},
		{
			"buffer":0,
			"byteLength":5376,
			"byteOffset":127992,
			"target":34962
		},
		{
			"buffer":0,
			"byteLength":3584,
			"byteOffset":133368,
			"target":34962
		},
		{
			"buffer":0,
			"byteLength":1452,
			"byteOffset":136952,
			"target":34963
		},
		{
			"buffer":0,
			"byteLength":672,
			"byteOffset":138404,
			"target":34962
		},
		{
			"buffer":0,
			"byteLength":672,
			"byteOffset":139076,
			"target":34962
		},
		{
			"buffer":0,
			"byteLength":448,
			"byteOffset":139748,
			"target":34962
		},
		{
			"buffer":0,
			"byteLength":204,
			"byteOffset":140196,
			"target":34963
		},
		{
			"buffer":0,
			"byteLength":5328,
			"byteOffset":140400,
			"target":34962
		},
		{
			"buffer":0,
			"byteLength":5328,
			"byteOffset":145728,
			"target":34962
		},
		{
			"buffer":0,
			"byteLength":3552,
			"byteOffset":151056,
			"target":34962
		},
		{
			"buffer":0,
			"byteLength":720,
			"byteOffset":154608,
			"target":34962
		},
		{
			"buffer":0,
			"byteLength":720,
			"byteOffset":155328,
			"target":34962
		},
		{
			"buffer":0,
			"byteLength":480,
			"byteOffset":156048,
			"target":34962
		}
	],
	"samplers":[
		{
			"magFilter":9729,
			"minFilter":9987
		}
	],
	"buffers":[
		{
			"byteLength":156528,
			"uri":"chariot.bin"
		}
	]
}
