{
	"asset":{
		"generator":"Khronos glTF Blender I/O v4.2.60",
		"version":"2.0"
	},
	"scene":0,
	"scenes":[
		{
			"name":"Scene",
			"nodes":[
				0
			]
		}
	],
	"nodes":[
		{
			"mesh":0,
			"name":"bois3"
		}
	],
	"materials":[
		{
			"doubleSided":true,
			"name":"Log",
			"pbrMetallicRoughness":{
				"baseColorTexture":{
					"index":0
				},
				"metallicFactor":0,
				"roughnessFactor":0.5
			}
		},
		{
			"doubleSided":true,
			"name":"Wood Light",
			"pbrMetallicRoughness":{
				"baseColorTexture":{
					"index":1
				},
				"metallicFactor":0,
				"roughnessFactor":0.5
			}
		},
		{
			"doubleSided":true,
			"name":"Wood Light 2",
			"pbrMetallicRoughness":{
				"baseColorTexture":{
					"index":2
				},
				"metallicFactor":0,
				"roughnessFactor":0.5
			}
		}
	],
	"meshes":[
		{
			"name":"Circle.002",
			"primitives":[
				{
					"attributes":{
						"POSITION":0,
						"NORMAL":1,
						"TEXCOORD_0":2
					},
					"indices":3,
					"material":0
				},
				{
					"attributes":{
						"POSITION":4,
						"NORMAL":5,
						"TEXCOORD_0":6
					},
					"indices":7,
					"material":1
				},
				{
					"attributes":{
						"POSITION":8,
						"NORMAL":9,
						"TEXCOORD_0":10
					},
					"indices":11,
					"material":2
				}
			]
		}
	],
	"textures":[
		{
			"sampler":0,
			"source":0
		},
		{
			"sampler":0,
			"source":1
		},
		{
			"sampler":0,
			"source":2
		}
	],
	"images":[
		{
			"mimeType":"image/png",
			"name":"marron",
			"uri":"textures/marron.png"
		},
		{
			"mimeType":"image/png",
			"name":"marron_clair",
			"uri":"textures/marron_clair.png"
		},
		{
			"mimeType":"image/png",
			"name":"marron_clair2",
			"uri":"textures/marron_clair2.png"
		}
	],
	"accessors":[
		{
			"bufferView":0,
			"componentType":5126,
			"count":650,
			"max":[
				0.7111542224884033,
				0.6149117946624756,
				0.8089854121208191
			],
			"min":[
				-0.5569992065429688,
				-0.08872008323669434,
				-0.7710722088813782
			],
			"type":"VEC3"
		},
		{
			"bufferView":1,
			"componentType":5126,
			"count":650,
			"type":"VEC3"
		},
		{
			"bufferView":2,
			"componentType":5126,
			"count":650,
			"type":"VEC2"
		},
		{
			"bufferView":3,
			"componentType":5123,
			"count":1080,
			"type":"SCALAR"
		},
		{
			"bufferView":4,
			"componentType":5126,
			"count":200,
			"max":[
				0.3269924223423004,
				0.5330533385276794,
				0.36655426025390625
			],
			"min":[
				-0.38929983973503113,
				0.4742307960987091,
				-0.3497380316257477
			],
			"type":"VEC3"
		},
		{
			"bufferView":5,
			"componentType":5126,
			"count":200,
			"type":"VEC3"
		},
		{
			"bufferView":6,
			"componentType":5126,
			"count":200,
			"type":"VEC2"
		},
		{
			"bufferView":7,
			"componentType":5123,
			"count":414,
			"type":"SCALAR"
		},
		{
			"bufferView":8,
			"componentType":5126,
			"count":138,
			"max":[
				0.28098002076148987,
				0.47877851128578186,
				0.3230154514312744
			],
			"min":[
				-0.34545135498046875,
				0.4742307960987091,
				-0.30341601371765137
			],
			"type":"VEC3"
		},
		{
			"bufferView":9,
			"componentType":5126,
			"count":138,
			"type":"VEC3"
		},
		{
			"bufferView":10,
			"componentType":5126,
			"count":138,
			"type":"VEC2"
		},
		{
			"bufferView":11,
			"componentType":5123,
			"count":318,
			"type":"SCALAR"
		}
	],
	"bufferViews":[
		{
			"buffer":0,
			"byteLength":7800,
			"byteOffset":0,
			"target":34962
		},
		{
			"buffer":0,
			"byteLength":7800,
			"byteOffset":7800,
			"target":34962
		},
		{
			"buffer":0,
			"byteLength":5200,
			"byteOffset":15600,
			"target":34962
		},
		{
			"buffer":0,
			"byteLength":2160,
			"byteOffset":20800,
			"target":34963
		},
		{
			"buffer":0,
			"byteLength":2400,
			"byteOffset":22960,
			"target":34962
		},
		{
			"buffer":0,
			"byteLength":2400,
			"byteOffset":25360,
			"target":34962
		},
		{
			"buffer":0,
			"byteLength":1600,
			"byteOffset":27760,
			"target":34962
		},
		{
			"buffer":0,
			"byteLength":828,
			"byteOffset":29360,
			"target":34963
		},
		{
			"buffer":0,
			"byteLength":1656,
			"byteOffset":30188,
			"target":34962
		},
		{
			"buffer":0,
			"byteLength":1656,
			"byteOffset":31844,
			"target":34962
		},
		{
			"buffer":0,
			"byteLength":1104,
			"byteOffset":33500,
			"target":34962
		},
		{
			"buffer":0,
			"byteLength":636,
			"byteOffset":34604,
			"target":34963
		}
	],
	"samplers":[
		{
			"magFilter":9729,
			"minFilter":9987
		}
	],
	"buffers":[
		{
			"byteLength":35240,
			"uri":"bois3.bin"
		}
	]
}
